<mxfile host="app.diagrams.net" agent="Mozilla/5.0 (Windows NT 10.0; Win64; x64) AppleWebKit/537.36 (KHTML, like Gecko) Chrome/140.0.0.0 Safari/537.36 Edg/140.0.0.0" version="28.2.3">
  <diagram name="PÃ¡gina-1" id="fi7nMXXNK6CQVVOI6-Ib">
    <mxGraphModel dx="1418" dy="786" grid="1" gridSize="10" guides="1" tooltips="1" connect="1" arrows="1" fold="1" page="1" pageScale="1" pageWidth="827" pageHeight="1169" math="0" shadow="0">
      <root>
        <mxCell id="0" />
        <mxCell id="1" parent="0" />
        <mxCell id="8Z5TDX0GpB0vHozEILl7-3" style="edgeStyle=orthogonalEdgeStyle;rounded=0;orthogonalLoop=1;jettySize=auto;html=1;" edge="1" parent="1" source="8Z5TDX0GpB0vHozEILl7-1" target="8Z5TDX0GpB0vHozEILl7-2">
          <mxGeometry relative="1" as="geometry" />
        </mxCell>
        <mxCell id="8Z5TDX0GpB0vHozEILl7-1" value="inicio" style="ellipse;whiteSpace=wrap;html=1;fillColor=#e51400;fontColor=#ffffff;strokeColor=#B20000;" vertex="1" parent="1">
          <mxGeometry x="354" y="70" width="120" height="80" as="geometry" />
        </mxCell>
        <mxCell id="8Z5TDX0GpB0vHozEILl7-5" style="edgeStyle=orthogonalEdgeStyle;rounded=0;orthogonalLoop=1;jettySize=auto;html=1;entryX=0.5;entryY=0;entryDx=0;entryDy=0;" edge="1" parent="1" source="8Z5TDX0GpB0vHozEILl7-2" target="8Z5TDX0GpB0vHozEILl7-4">
          <mxGeometry relative="1" as="geometry" />
        </mxCell>
        <mxCell id="8Z5TDX0GpB0vHozEILl7-2" value="ler P1 P2 P3 &amp;amp; P4" style="shape=parallelogram;perimeter=parallelogramPerimeter;whiteSpace=wrap;html=1;fixedSize=1;fillColor=#fa6800;fontColor=#000000;strokeColor=#C73500;" vertex="1" parent="1">
          <mxGeometry x="354" y="220" width="120" height="60" as="geometry" />
        </mxCell>
        <mxCell id="8Z5TDX0GpB0vHozEILl7-7" style="edgeStyle=orthogonalEdgeStyle;rounded=0;orthogonalLoop=1;jettySize=auto;html=1;" edge="1" parent="1" source="8Z5TDX0GpB0vHozEILl7-4" target="8Z5TDX0GpB0vHozEILl7-6">
          <mxGeometry relative="1" as="geometry" />
        </mxCell>
        <mxCell id="8Z5TDX0GpB0vHozEILl7-4" value="realizar o seguinte calculo&lt;div&gt;Media= (P1+P2+P3+P4)/4&lt;/div&gt;" style="rounded=0;whiteSpace=wrap;html=1;fillColor=#f0a30a;fontColor=#000000;strokeColor=#BD7000;" vertex="1" parent="1">
          <mxGeometry x="354" y="360" width="120" height="60" as="geometry" />
        </mxCell>
        <mxCell id="8Z5TDX0GpB0vHozEILl7-9" style="edgeStyle=orthogonalEdgeStyle;rounded=0;orthogonalLoop=1;jettySize=auto;html=1;entryX=0.5;entryY=0;entryDx=0;entryDy=0;" edge="1" parent="1" source="8Z5TDX0GpB0vHozEILl7-6" target="8Z5TDX0GpB0vHozEILl7-8">
          <mxGeometry relative="1" as="geometry" />
        </mxCell>
        <mxCell id="8Z5TDX0GpB0vHozEILl7-6" value="Mostrar os resultados" style="shape=parallelogram;perimeter=parallelogramPerimeter;whiteSpace=wrap;html=1;fixedSize=1;fillColor=#fa6800;fontColor=#000000;strokeColor=#C73500;" vertex="1" parent="1">
          <mxGeometry x="341" y="470" width="146" height="60" as="geometry" />
        </mxCell>
        <mxCell id="8Z5TDX0GpB0vHozEILl7-8" value="fim" style="ellipse;whiteSpace=wrap;html=1;fillColor=#e51400;fontColor=#ffffff;strokeColor=#B20000;" vertex="1" parent="1">
          <mxGeometry x="354" y="570" width="120" height="80" as="geometry" />
        </mxCell>
      </root>
    </mxGraphModel>
  </diagram>
</mxfile>
